HIERARCHY
ROOT hip
{
  OFFSET 0 0 0
  CHANNELS 6 Xposition Yposition Zposition Zrotation Yrotation Xrotation
  JOINT abdomen
  {
    OFFSET 0 20.6881 -0.73152
    CHANNELS 3 Zrotation Xrotation Yrotation
    JOINT chest
    {
      OFFSET 0 11.7043 -0.48768
      CHANNELS 3 Zrotation Xrotation Yrotation
      JOINT neck
      {
        OFFSET 0 22.1894 -2.19456
        CHANNELS 3 Zrotation Xrotation Yrotation
        JOINT head
        {
          OFFSET -0.24384 7.07133 1.2192
          CHANNELS 3 Zrotation Xrotation Yrotation
          JOINT leftEye
          {
            OFFSET 4.14528 8.04674 8.04672
            CHANNELS 3 Zrotation Xrotation Yrotation
            End Site
            {
              OFFSET 1 0 0
            }
          }
          JOINT rightEye
          {
            OFFSET -3.6576 8.04674 8.04672
            CHANNELS 3 Zrotation Xrotation Yrotation
            End Site
            {
              OFFSET 1 0 0
            }
          }
        }
      }
      JOINT rCollar
      {
        OFFSET -2.68224 19.2634 -4.8768
        CHANNELS 3 Zrotation Xrotation Yrotation
        JOINT rShldr
        {
          OFFSET -8.77824 -1.95073 1.46304
          CHANNELS 3 Zrotation Xrotation Yrotation
          JOINT rForeArm
          {
            OFFSET -28.1742 -1.7115 0.48768
            CHANNELS 3 Zrotation Xrotation Yrotation
            JOINT rHand
            {
              OFFSET -22.5879 0.773209 7.07136
              CHANNELS 3 Zrotation Xrotation Yrotation
              JOINT rThumb1
              {
                OFFSET -1.2192 -0.487915 3.41376
                CHANNELS 3 Zrotation Xrotation Yrotation
                JOINT rThumb2
                {
                  OFFSET -3.37035 -0.52449 3.41376
                  CHANNELS 3 Zrotation Xrotation Yrotation
                  End Site
                  {
                    OFFSET -1.78271 -1.18214 1.43049
                  }
                }
              }
              JOINT rIndex1
              {
                OFFSET -7.75947 0.938293 5.60832
                CHANNELS 3 Zrotation Xrotation Yrotation
                JOINT rIndex2
                {
                  OFFSET -2.54057 -0.884171 1.56538
                  CHANNELS 3 Zrotation Xrotation Yrotation
                  End Site
                  {
                    OFFSET -1.62519 -0.234802 1.16502
                  }
                }
              }
              JOINT rMid1
              {
                OFFSET -8.24714 1.18213 3.41376
                CHANNELS 3 Zrotation Xrotation Yrotation
                JOINT rMid2
                {
                  OFFSET -3.10165 -0.590103 1.0647
                  CHANNELS 3 Zrotation Xrotation Yrotation
                  End Site
                  {
                    OFFSET -2.48547 -0.328903 0.83742
                  }
                }
              }
              JOINT rRing1
              {
                OFFSET -8.82822 0.546677 1.51678
                CHANNELS 3 Zrotation Xrotation Yrotation
                JOINT rRing2
                {
                  OFFSET -2.60934 -0.819778 -0.0198488
                  CHANNELS 3 Zrotation Xrotation Yrotation
                  End Site
                  {
                    OFFSET -2.33842 -0.294052 0.168128
                  }
                }
              }
              JOINT rPinky1
              {
                OFFSET -8.27202 -0.0477905 -0.4584
                CHANNELS 3 Zrotation Xrotation Yrotation
                JOINT rPinky2
                {
                  OFFSET -1.82734 -0.647385 -0.700984
                  CHANNELS 3 Zrotation Xrotation Yrotation
                  End Site
                  {
                    OFFSET -1.69225 -0.51767 -0.607171
                  }
                }
              }
            }
          }
        }
      }
      JOINT lCollar
      {
        OFFSET 2.68224 19.2634 -4.8768
        CHANNELS 3 Zrotation Xrotation Yrotation
        JOINT lShldr
        {
          OFFSET 8.77824 -1.95073 1.46304
          CHANNELS 3 Zrotation Xrotation Yrotation
          JOINT lForeArm
          {
            OFFSET 28.1742 -1.7115 0.48768
            CHANNELS 3 Zrotation Xrotation Yrotation
            JOINT lHand
            {
              OFFSET 22.5879 0.773209 7.07136
              CHANNELS 3 Zrotation Xrotation Yrotation
              JOINT lThumb1
              {
                OFFSET 1.2192 -0.487915 3.41376
                CHANNELS 3 Zrotation Xrotation Yrotation
                JOINT lThumb2
                {
                  OFFSET 3.37035 -0.52449 3.41376
                  CHANNELS 3 Zrotation Xrotation Yrotation
                  End Site
                  {
                    OFFSET 1.78271 -1.18214 1.43049
                  }
                }
              }
              JOINT lIndex1
              {
                OFFSET 7.75947 0.938293 5.60832
                CHANNELS 3 Zrotation Xrotation Yrotation
                JOINT lIndex2
                {
                  OFFSET 2.54057 -0.884171 1.56538
                  CHANNELS 3 Zrotation Xrotation Yrotation
                  End Site
                  {
                    OFFSET 1.62519 -0.234802 1.16502
                  }
                }
              }
              JOINT lMid1
              {
                OFFSET 8.24714 1.18213 3.41376
                CHANNELS 3 Zrotation Xrotation Yrotation
                JOINT lMid2
                {
                  OFFSET 3.10165 -0.590103 1.0647
                  CHANNELS 3 Zrotation Xrotation Yrotation
                  End Site
                  {
                    OFFSET 2.48547 -0.328903 0.83742
                  }
                }
              }
              JOINT lRing1
              {
                OFFSET 8.82822 0.546677 1.51678
                CHANNELS 3 Zrotation Xrotation Yrotation
                JOINT lRing2
                {
                  OFFSET 2.60934 -0.819778 -0.0198488
                  CHANNELS 3 Zrotation Xrotation Yrotation
                  End Site
                  {
                    OFFSET 2.33842 -0.294052 0.168128
                  }
                }
              }
              JOINT lPinky1
              {
                OFFSET 8.27202 -0.0477905 -0.4584
                CHANNELS 3 Zrotation Xrotation Yrotation
                JOINT lPinky2
                {
                  OFFSET 1.82734 -0.647385 -0.700984
                  CHANNELS 3 Zrotation Xrotation Yrotation
                  End Site
                  {
                    OFFSET 1.69225 -0.51767 -0.607171
                  }
                }
              }
            }
          }
        }
      }
    }
  }
  JOINT rButtock
  {
    OFFSET -8.77824 4.35084 1.2192
    CHANNELS 3 Zrotation Xrotation Yrotation
    JOINT rThigh
    {
      OFFSET 0 -1.70687 -2.19456
      CHANNELS 3 Zrotation Xrotation Yrotation
      JOINT rShin
      {
        OFFSET 0 -36.8199 0.73152
        CHANNELS 3 Zrotation Xrotation Yrotation
        JOINT rFoot
        {
          OFFSET 0.73152 -45.1104 -5.12064
          CHANNELS 3 Zrotation Xrotation Yrotation
          End Site
          {
            OFFSET -1.1221 -3.69964 12.103
          }
        }
      }
    }
  }
  JOINT lButtock
  {
    OFFSET 8.77824 4.35084 1.2192
    CHANNELS 3 Zrotation Xrotation Yrotation
    JOINT lThigh
    {
      OFFSET 0 -1.70687 -2.19456
      CHANNELS 3 Zrotation Xrotation Yrotation
      JOINT lShin
      {
        OFFSET 0 -36.8199 0.73152
        CHANNELS 3 Zrotation Xrotation Yrotation
        JOINT lFoot
        {
          OFFSET -0.73152 -45.1104 -5.12064
          CHANNELS 3 Zrotation Xrotation Yrotation
          End Site
          {
            OFFSET 1.1221 -3.69964 12.103
          }
        }
      }
    }
  }
}
MOTION
Frames:	4
Frame Time:	0.03333
0.11354181449860334 4.145694732666016 1.114358238875866 -164.47096467018127 -71.09899878501892 164.92518067359924 -0.35227198619395494 13.078314363956451 13.128561526536942 -0.882648266851902 -12.970971018075943 3.7214295566082 -0.22161249071359634 12.966699600219727 9.463183432817459 4.038636311888695 -21.217879951000214 19.938281178474426 -0.17111775814555585 -0.45272016897797585 1.1806837655603886 -0.21818542387336493 -0.7492844760417938 0.7833210378885269 -0.5301040783524513 -0.2067216206341982 -0.33204947132617235 45.78820466995239 83.97135972976685 18.25774446129799 -27.20916509628296 -44.651784896850586 94.64501738548279 -43.5307851433754 -78.92216563224792 -51.09996020793915 0.17349290661513805 0.03643525036750361 0.42971787974238396 0.6274257274344563 -0.9405761025846004 -0.5445340275764465 -0.8229246083647013 0.8874964434653521 0.14769798726774752 8.236603885889053 4.636607319116592 0.9482012875378132 -0.13191294623538852 0.2144936565309763 -0.4568719770759344 2.473900616168976 1.5240147337317467 -0.06160472519695759 0.7483477145433426 -0.7929501682519913 -0.8927806466817856 9.880539178848267 0.6418487196788192 0.12287165969610214 0.009419561829417944 0.19255465362221003 -0.11056509800255299 2.6931121945381165 -0.8291159849613905 0.46992008574306965 0.4638993227854371 -0.4075343767181039 -1.0909983236342669 -65.99496960639954 6.955685466527939 -35.58695375919342 27.430857717990875 -33.33557724952698 -73.0711305141449 2.335728295147419 10.848404243588448 -1.9632239453494549 0.6836120551452041 -0.1928905164822936 1.1063177604228258 0.6130463629961014 0.5811793729662895 -0.24647118290886283 -0.5563586298376322 -0.1639406697358936 0.33263465389609337 -8.250063210725784 6.0539596527814865 0.1390758901834488 0.7387773413211107 0.3236719686537981 -0.3001177730038762 -3.9493200927972794 1.511372309178114 -0.055733725894242525 0.6741770077496767 1.8929794058203697 0.8566875848919153 -10.689045488834381 0.3620476322248578 -0.3225127514451742 0.160866481019184 0.07012670568656176 -0.004226459423080087 -2.520197220146656 -1.0898484103381634 0.9700188785791397 -0.5729551333934069 -0.18714763456955552 0.09197896113619208 -14.790011644363403 -41.13218754529953 -27.78732866048813 -58.377453088760376 89.4203370809555 61.22536361217499 -22.94383853673935 -24.748686254024506 -32.96576768159866 -1.1874627135694027 -0.01652718521654606 0.07591483416035771 78.51269960403442 -43.694263100624084 72.92328178882599 1.5604233741760254 77.15792655944824 -4.872217923402786 1.507466845214367 -0.9442958235740662 -1.38995960354805
0.1330677466467023 4.09226131439209 1.0892369449138641 -160.46645879745483 -69.81891453266144 161.45955204963684 -0.19269530195742846 13.220452666282654 13.246110677719116 -0.9124177694320679 -12.933280616998672 3.767141103744507 -0.43645743280649185 13.15923124551773 8.929879814386368 4.353023394942284 -21.544406712055206 19.130083322525024 -0.15426405589096248 -0.44917160645127296 1.1822962760925293 -0.1920431898906827 -0.7194459065794945 0.766299907118082 -0.5251845717430115 -0.28392246924340725 -0.2611870178952813 45.400652289390564 83.27110469341278 19.583090990781784 -27.32652246952057 -44.54602539539337 94.56092476844788 -42.59648859500885 -78.24001550674438 -49.82075035572052 0.15380289405584335 0.08672898751683533 0.3719876892864704 0.595438121818006 -0.9870585333555937 -0.5125423986464739 -0.8108865190297365 0.8702211733907461 0.1766108488664031 8.229257315397263 4.655316397547722 0.9426254779100418 -0.14598376234062016 0.1969689829275012 -0.4288153164088726 2.4593608640134335 1.510135643184185 -0.05964704789221287 0.7026896439492702 -0.7140551693737507 -0.8716568257659674 9.886666685342789 0.624244837090373 0.12550682527944446 0.010176615323871374 0.16812455956824124 -0.09135687723755836 2.6372364163398743 -0.8338077552616596 0.4589982144534588 0.44999714009463787 -0.40804898366332054 -1.1107888352125883 -65.4738700389862 7.300950810313225 -36.69474899768829 27.348892092704773 -32.75272250175476 -72.23680794239044 2.729964405298233 10.468359366059303 -1.8343632481992245 0.7076275907456875 -0.1885979762300849 1.0777626279741526 0.5727730365470052 0.4800705285742879 -0.2818052005022764 -0.5220789089798927 -0.17047876375727355 0.366656924597919 -8.244089260697365 6.059434041380882 0.11800617445260286 0.7010684162378311 0.325720002874732 -0.31078596599400043 -3.94175224006176 1.4422913454473019 -0.07665633922442794 0.7051454577594995 1.881683450192213 0.8623306173831224 -10.725457146763802 0.3559721354395151 -0.35239939112216234 0.13213849277235568 0.06372896663378924 0.014779097400605679 -2.5084821693599224 -1.077734213322401 0.9711126331239939 -0.5642634769901633 -0.19939466379582882 0.03923864336684346 -14.529422968626022 -40.550885796546936 -27.83934473991394 -60.509315729141235 88.7791657447815 63.94140064716339 -22.81632363796234 -24.922576546669006 -32.585813999176025 -1.194880697876215 -0.022705004084855318 0.047111723106354475 78.1558907032013 -44.15737867355347 73.11000645160675 3.9678575098514557 77.11193203926086 -6.985967606306076 1.2499764561653137 -1.0892893373966217 -1.5594121813774109
0.15855020936578512 4.114305019378662 1.0622734650969505 -160.08903980255127 -68.97774159908295 166.6298747062683 0.14536748290993273 13.3199143409729 13.583806157112122 -1.092010773718357 -13.2913139462471 3.8134702295064926 -0.8286621049046516 13.293879479169846 8.3613520860672 4.750952906906605 -21.288529336452484 18.274437189102173 -0.059624448185786605 -0.35075140418484807 1.1096509918570518 -0.23889957927167416 -0.6571512669324875 0.7124739233404398 -0.4763404978439212 -0.29796785674989223 -0.24937666486948729 43.578249514102936 82.86955118179321 20.599929839372635 -27.82865345478058 -45.120490193367004 95.28567910194397 -43.62203121185303 -78.55122685432434 -49.69719707965851 0.16379751730710268 -0.08953364565968513 0.3104841965250671 0.5944449501112103 -0.9721198864281178 -0.4233804065734148 -0.8468344900757074 0.8273205813020468 0.1125824439805001 8.131512254476547 4.561677128076553 0.9773274790495634 -0.1125354424584657 0.17386105027981102 -0.44996486976742744 2.349659353494644 1.5109091252088547 -0.020496710494626313 0.6125470530241728 -0.7116800732910633 -0.7653656601905823 9.952928647398949 0.5983090493828058 0.0981435994617641 0.0025592255406081676 0.18153483979403973 -0.15887444838881493 2.6353856921195984 -0.8350579161196947 0.47748525626957417 0.34080596175044775 -0.351064195856452 -1.1720528360456228 -65.61026573181152 9.142074063420296 -35.30901521444321 27.87818044424057 -33.185714185237885 -72.44375109672546 1.7188752070069313 9.30015005171299 0.3589615412056446 0.6751711433753371 -0.23461923468858004 1.0461343545466661 0.4880123818293214 0.5552919069305062 -0.326071938034147 -0.5475175241008401 -0.21196391433477402 0.37061850540339947 -8.159484341740608 5.974729210138321 0.14655669685453176 0.5692543974146247 0.22463454399257898 -0.30177219305187464 -3.861386217176914 1.3014203868806362 -0.09264326887205243 0.5783602874726057 1.791483610868454 0.8535932376980782 -10.71515142917633 0.35575919318944216 -0.41581406258046627 0.07639900431968272 0.08625145477708429 0.016552938614040613 -2.3745755665004253 -1.0626798961311579 1.0028819739818573 -0.43392475694417953 -0.20046654157340527 0.027088404167443514 -15.285050868988037 -40.81375032663345 -28.69982421398163 -63.32286715507507 90.55283546447754 66.95387542247772 -22.600644528865814 -26.149882972240448 -31.690259277820587 -1.158491838723421 -0.03138568019494414 0.0239893002435565 79.52176809310913 -44.68136429786682 74.36874568462372 6.1198890209198 78.16287517547607 -9.02840606868267 0.9181975945830345 -1.768837720155716 -2.4181757122278214
0.17134880367666483 4.028226852416992 1.0905038267374039 -157.02687978744507 -68.0033540725708 158.7489116191864 0.01570832566358149 13.219145089387894 13.207995146512985 -0.7888485677540302 -13.248682916164398 3.599158376455307 -1.023138351738453 13.422447144985199 8.295789510011673 4.975273087620735 -21.09628736972809 17.893953770399094 -0.02616049605421722 -0.29409925220534205 1.0310631897300482 -0.2981317648664117 -0.5922967940568924 0.6201286520808935 -0.3943023690953851 -0.2965260436758399 -0.1863714074715972 43.639173209667206 82.17569053173065 20.570412129163742 -27.995977699756622 -45.206610560417175 94.8829185962677 -44.11452502012253 -77.70198583602905 -49.54181671142578 0.10314214741811156 -0.14148440910503268 0.23159445729106665 0.5154221272096038 -0.9114824328571558 -0.40154789574444294 -0.8602046314626932 0.8157051913440228 0.08707321132533252 8.085056394338608 4.571858122944832 0.9960759524255991 -0.05765612586401403 0.09812477161176503 -0.4448215663433075 2.306144032627344 1.460142619907856 -0.0015710436855442822 0.5929128639400005 -0.6756546534597874 -0.7161472085863352 9.974215999245644 0.5798512604087591 -0.007535938639193773 -0.04946364322677255 0.18094596918672323 -0.19629493122920394 2.566991373896599 -0.8924314565956593 0.399562306702137 0.2779157040640712 -0.33302629832178354 -1.1392602324485779 -63.10397207736969 9.580231010913849 -37.633060812950134 28.199466168880463 -34.12087440490723 -73.78248989582062 1.8780036270618439 10.732877478003502 0.960939098149538 0.6603434728458524 -0.22407010663300753 0.9860692173242569 0.41960297618061304 0.557276071049273 -0.33456919714808464 -0.5083212722092867 -0.24034290108829737 0.3661260986700654 -8.170113265514374 5.9452517330646515 0.11402803938835859 0.5185429193079472 0.10039509390480816 -0.2881469903513789 -3.7842150405049324 1.2511045765131712 -0.06897407351061702 0.3829575050622225 1.7147744446992874 0.8065804839134216 -10.667095631361008 0.3306003659963608 -0.4435921926051378 0.09975580614991486 0.09114098036661744 0.015675164759159088 -2.338892798870802 -1.0906610358506441 0.9946717321872711 -0.3939766064286232 -0.20112521247938275 0.016772334929555655 -16.01780354976654 -41.47867530584335 -29.455021619796753 -68.18127036094666 90.51783800125122 71.87120139598846 -22.220438718795776 -26.288968920707703 -31.193455159664154 -1.0708742961287498 -0.03285490209236741 -0.006404339801520109 79.43601250648499 -44.621100425720215 73.79227995872498 7.602163553237915 79.47649240493774 -9.532568156719208 1.0094792023301125 -3.0039869248867035 -2.413870096206665
